<svg width="109" height="108" viewBox="0 0 109 108" fill="none" xmlns="http://www.w3.org/2000/svg">
<g id="beaker-01">
<path id="Icon" d="M45.5 9.00038V29.9723C45.5 30.9495 45.5 31.4382 45.3511 31.8269C45.2106 32.1936 45.0246 32.4598 44.7286 32.7178C44.4148 32.9914 43.9067 33.1776 42.8903 33.5499C29.9701 38.283 20.75 50.6898 20.75 65.25C20.75 83.8896 35.8604 99 54.5 99C73.1396 99 88.25 83.8896 88.25 65.25C88.25 50.6898 79.0299 38.2831 66.1097 33.5499C65.0933 33.1776 64.5852 32.9914 64.2714 32.7178C63.9754 32.4598 63.7894 32.1936 63.6489 31.8269C63.5 31.4382 63.5 30.9495 63.5 29.9723V9.00038M38.75 9H70.25" stroke="#90D566" stroke-width="6" stroke-linecap="round" stroke-linejoin="round"/>
</g>
</svg>
