<svg width="109" height="108" viewBox="0 0 109 108" fill="none" xmlns="http://www.w3.org/2000/svg">
<g id="briefcase-02">
<path id="Icon" d="M36.5 94.5V31.5C36.5 27.3151 36.5 25.2227 36.96 23.5059C38.2083 18.8472 41.8472 15.2083 46.5059 13.96C48.2227 13.5 50.3151 13.5 54.5 13.5C58.6849 13.5 60.7773 13.5 62.4941 13.96C67.1528 15.2083 70.7917 18.8472 72.04 23.5059C72.5 25.2227 72.5 27.3151 72.5 31.5V94.5M23.9 94.5H85.1C90.1405 94.5 92.6607 94.5 94.5859 93.5191C96.2794 92.6562 97.6562 91.2794 98.5191 89.5859C99.5 87.6607 99.5 85.1405 99.5 80.1V45.9C99.5 40.8595 99.5 38.3393 98.5191 36.4141C97.6562 34.7206 96.2794 33.3438 94.5859 32.4809C92.6607 31.5 90.1405 31.5 85.1 31.5H23.9C18.8595 31.5 16.3393 31.5 14.4141 32.4809C12.7206 33.3438 11.3438 34.7206 10.4809 36.4141C9.5 38.3393 9.5 40.8595 9.5 45.9V80.1C9.5 85.1405 9.5 87.6607 10.4809 89.5859C11.3438 91.2794 12.7206 92.6562 14.4141 93.5191C16.3393 94.5 18.8595 94.5 23.9 94.5Z" stroke="#90D566" stroke-width="6" stroke-linecap="round" stroke-linejoin="round"/>
</g>
</svg>
