<svg width="109" height="108" viewBox="0 0 109 108" fill="none" xmlns="http://www.w3.org/2000/svg">
<g id="building-05">
<path id="Icon" d="M59 49.5H80.6C85.6405 49.5 88.1607 49.5 90.0859 50.4809C91.7794 51.3438 93.1562 52.7206 94.0191 54.4141C95 56.3393 95 58.8595 95 63.9V94.5M59 94.5V27.9C59 22.8595 59 20.3393 58.0191 18.4141C57.1562 16.7206 55.7794 15.3438 54.0859 14.4809C52.1607 13.5 49.6405 13.5 44.6 13.5H28.4C23.3595 13.5 20.8393 13.5 18.9141 14.4809C17.2206 15.3438 15.8438 16.7206 14.9809 18.4141C14 20.3393 14 22.8595 14 27.9V94.5M99.5 94.5H9.5M29.75 31.5H43.25M29.75 49.5H43.25M29.75 67.5H43.25" stroke="#90D566" stroke-width="6" stroke-linecap="round" stroke-linejoin="round"/>
</g>
</svg>
