<svg width="108" height="108" viewBox="0 0 108 108" fill="none" xmlns="http://www.w3.org/2000/svg">
<g id="calculator">
<path id="Icon" d="M78.75 29.25L29.25 78.75M38.25 47.25V29.25M29.25 38.25H47.25M60.75 69.75H78.75M35.1 94.5H72.9C80.4607 94.5 84.2411 94.5 87.1289 93.0286C89.6691 91.7343 91.7343 89.6691 93.0286 87.1289C94.5 84.2411 94.5 80.4607 94.5 72.9V35.1C94.5 27.5393 94.5 23.7589 93.0286 20.8711C91.7343 18.3309 89.6691 16.2657 87.1289 14.9714C84.2411 13.5 80.4607 13.5 72.9 13.5H35.1C27.5393 13.5 23.7589 13.5 20.8711 14.9714C18.3309 16.2657 16.2657 18.3309 14.9714 20.8711C13.5 23.7589 13.5 27.5393 13.5 35.1V72.9C13.5 80.4607 13.5 84.2411 14.9714 87.1289C16.2657 89.6691 18.3309 91.7343 20.8711 93.0286C23.7589 94.5 27.5393 94.5 35.1 94.5Z" stroke="#90D566" stroke-width="6" stroke-linecap="round" stroke-linejoin="round"/>
</g>
</svg>
